<svg width="24" height="24" viewBox="0 0 24 24" xmlns="http://www.w3.org/2000/svg">
  <path fill="#F2F2F2" fill-rule="evenodd" clip-rule="evenodd" d="M22.494,12.3592C19.8895,9.52584 16.1522,7.75015 12.0003,7.75015C11.8124,7.75015 11.6255,7.75378 11.4395,7.76097C11.5368,8.9511 11.8671,10.1394 12.4492,11.2594C14.2158,11.332 15.874,11.8314 17.3217,12.6577C19.0134,13.6232 20.4181,15.0357 21.3745,16.7346C22.0436,15.4124 22.4412,13.9295 22.494,12.3592ZM20.4509,18.2327C18.5386,20.8213 15.4653,22.5 12,22.5C6.20101,22.5 1.5,17.799 1.5,12C1.5,6.20101 6.20101,1.5 12,1.5C11.9999,1.5 12.0001,1.5 12,1.5C11.8027,1.5 11.607,1.50544 11.4124,1.51618C11.3916,1.55145 11.3709,1.58683 11.3505,1.62231C10.3982,3.27408 9.89946,5.15586 9.90898,7.06304C9.91729,8.72981 10.3139,10.4155 11.1342,11.9817C10.4553,13.0458 9.59145,13.926 8.60943,14.6054C8.51019,14.4479 8.41357,14.2878 8.31965,14.1251C6.24307,10.5284 5.91266,6.40267 7.06539,2.72961C6.39669,3.08632 5.77112,3.51327 5.19853,4.00061C4.49922,7.59727 5.04475,11.4529 7.02061,14.8751C7.11451,15.0378 7.21088,15.1981 7.30966,15.3562C5.78234,16.0801 4.07251,16.3794 2.375,16.2023C2.61185,16.744 2.8931,17.2619 3.21415,17.7514C5.16335,17.7724 7.08857,17.262 8.77029,16.2798C10.2096,15.4392 11.4711,14.2529 12.4173,12.7594C13.6784,12.8153 14.8726,13.1233 15.952,13.6342C15.8652,13.7989 15.7748,13.9627 15.6809,14.1254C15.466,14.4977 15.2369,14.8564 14.9948,15.2014C12.8961,18.1916 9.80894,20.1573 6.44076,20.909C7.07496,21.3056 7.75454,21.6364 8.46996,21.8917C11.5198,20.8425 14.2613,18.8574 16.2225,16.0631C16.49,15.682 16.7429,15.286 16.9799,14.8754C17.0738,14.7127 17.1645,14.549 17.252,14.3844C18.6419,15.3447 19.7555,16.6751 20.4509,18.2327ZM13.1728,1.56477C17.7934,2.0783 21.5092,5.59018 22.3305,10.1108C19.5652,7.70604 15.9527,6.25015 12.0003,6.25015C11.8125,6.25015 11.6255,6.25344 11.4393,6.25996C11.5502,4.89396 11.9631,3.56289 12.65,2.37146C12.8096,2.09461 12.984,1.82527 13.1728,1.56477Z"/>
</svg>
