<svg width="24" height="24" viewBox="0 0 24 24" xmlns="http://www.w3.org/2000/svg">
  <path fill="#F2F2F2" fill-rule="evenodd" clip-rule="evenodd" d="M3.74417,14.1895L5.03847,15.4838L13.0231,5.27331C13.0092,4.55725 12.7133,3.71328 11.8233,2.82333C9.34713,0.347222 7.38092,2.6229 7.38092,2.6229L3.74417,14.1895ZM2.98015,15.5468C1.13154,17.7073 1.166,19.7843 2.61083,21.2299C4.05568,22.6755 6.09034,22.6667 8.24456,20.811L2.98015,15.5468ZM9.60111,20.0463L21.1692,16.4117C21.1692,16.4117 23.4923,14.4922 21.0161,12.0161C20.0947,11.0948 19.2227,10.8101 18.4908,10.8159L8.35566,18.8008L9.60111,20.0463ZM17.5193,9.67173C17.5347,9.03254 17.2677,8.26773 16.4199,7.41996C15.5448,6.54481 14.758,6.28854 14.1065,6.32288L6.10706,16.5523L7.28754,17.7328L17.5193,9.67173Z"/>
</svg>
