<svg width="24" height="24" viewBox="0 0 24 24" xmlns="http://www.w3.org/2000/svg">
  <path fill="#F2F2F2" fill-rule="evenodd" clip-rule="evenodd" d="M11.5775,1.50781C7.17792,1.68193 3.47427,4.56307 2.08618,8.53159C2.09086,8.53746 2.09546,8.54342 2.1,8.54946C3.13004,9.92285 4.42583,10.7962 5.83188,11.5105C6.49875,11.8493 7.17917,12.147 7.87105,12.4497L7.99705,12.5048C8.72416,12.8231 9.46477,13.1504 10.1662,13.5256C11.5779,14.2807 12.8907,15.26 13.7612,16.8692C14.4795,18.1969 14.8615,19.8878 14.8244,22.1152C18.84,20.9964 21.8858,17.5507 22.4174,13.3226C20.5215,13.3689 19.0858,12.9787 17.9639,12.2231C16.6371,11.3296 15.8628,9.99856 15.2515,8.61509C14.9972,8.03958 14.762,7.43242 14.529,6.83114C14.482,6.70975 14.4351,6.5886 14.3881,6.46799C14.1049,5.74112 13.8153,5.02108 13.474,4.31983C12.9819,3.30842 12.3888,2.35045 11.5775,1.50781ZM22.4985,11.8197C20.7648,11.8803 19.6209,11.5306 18.8018,10.9789C17.8316,10.3256 17.1997,9.31287 16.6235,8.00884C16.3846,7.46821 16.1644,6.89992 15.9316,6.29914L15.9316,6.29908C15.8836,6.17529 15.8351,6.05011 15.7858,5.92351C15.5006,5.1914 15.1925,4.42317 14.8228,3.66347C14.4869,2.97308 14.0975,2.28423 13.621,1.62383C18.5928,2.39428 22.4117,6.65271 22.4985,11.8197ZM12,22.4995C12.4457,22.4995 12.8849,22.4717 13.3161,22.4178C13.3953,20.1969 13.0357,18.6805 12.4419,17.5829C11.7656,16.3327 10.7346,15.5307 9.45876,14.8483C8.81648,14.5048 8.1274,14.1993 7.39553,13.8789L7.26052,13.8198L7.2605,13.8198L7.26036,13.8198C6.57688,13.5208 5.85936,13.2069 5.15249,12.8478C3.92776,12.2256 2.70246,11.4522 1.63356,10.3202C1.54567,10.867 1.5,11.4279 1.5,11.9995C1.5,17.7985 6.20101,22.4995 12,22.4995Z"/>
</svg>
