<svg width="24" height="24" viewBox="0 0 24 24" xmlns="http://www.w3.org/2000/svg">
  <path fill="#F2F2F2" fill-rule="evenodd" clip-rule="evenodd" d="M15.8135,16.5835C16.7836,15.8582 17.6524,14.8868 18.354,13.6716C20.9255,9.21771 19.5178,4.45761 15.6915,2.24848C11.8651,0.039349 7.06906,1.21771 4.49763,5.67156C3.79599,6.88682 3.38911,8.12489 3.2461,9.32772L9.39018,12.875L15.8135,16.5835ZM14.339,17.4642L8.64018,14.174L3.22059,11.045C3.4506,13.5633 4.8638,15.7804 7.14012,17.0946C9.41643,18.4089 12.0431,18.5242 14.339,17.4642ZM5.34395,17.6986L3.19526,20.6961C3.02308,20.9363 3.09569,21.2726 3.35164,21.4204L5.3547,22.5769C5.61439,22.7268 5.94674,22.616 6.06452,22.3402L7.51223,18.9506C7.13192,18.7912 6.75688,18.6055 6.38909,18.3932C6.02099,18.1807 5.67235,17.9485 5.34395,17.6986ZM18.999,22.5013C20.3797,22.5013 21.499,21.382 21.499,20.0013C21.499,18.6206 20.3797,17.5013 18.999,17.5013C17.6183,17.5013 16.499,18.6206 16.499,20.0013C16.499,21.382 17.6183,22.5013 18.999,22.5013Z"/>
</svg>
