<svg width="24" height="24" viewBox="0 0 24 24" xmlns="http://www.w3.org/2000/svg">
  <path fill="#F2F2F2" fill-rule="evenodd" clip-rule="evenodd" d="M13.2929 10.7071C13.0833 10.4975 12.7452 10.4921 12.529 10.6948L11.4231 11.7316C11.5742 11.8411 11.7273 11.9699 11.8787 12.1213C12.0301 12.2727 12.1589 12.4258 12.2684 12.5769L13.3052 11.471C13.5079 11.2548 13.5025 10.9167 13.2929 10.7071ZM10.8371 14.1037L3.7245 21.6904C3.34677 22.0933 3.36719 22.7262 3.7701 23.1039C4.17301 23.4816 4.80585 23.4612 5.18358 23.0583L14.7643 12.8389C15.7053 11.8352 15.68 10.2658 14.7071 9.29289C13.7342 8.32001 12.1648 8.2947 11.1611 9.23571L0.941673 18.8164C0.538761 19.1941 0.518346 19.827 0.896077 20.2299C1.27381 20.6328 1.90664 20.6532 2.30955 20.2755L9.8963 13.1629C10.0323 13.2101 10.2405 13.3116 10.4644 13.5355C10.6884 13.7595 10.7899 13.9677 10.8371 14.1037Z"/>
  <path fill="#F2F2F2" d="M14 18.5C18.6944 18.5 22.5 14.6944 22.5 10C22.5 5.30558 18.6944 1.5 14 1.5C9.30556 1.5 5.49998 5.30558 5.49998 10C5.49998 10.8642 5.62894 11.6982 5.86866 12.4839L10.3061 8.32379C11.8021 6.92135 14.141 6.95906 15.591 8.40901C17.0409 9.85896 17.0786 12.1979 15.6762 13.6938L11.516 18.1313C12.3018 18.371 13.1358 18.5 14 18.5Z"/>
</svg>
